# xmcd
#
# Track frame offsets:
#	150
#	1777
#	35917
#	47177
#	55897
#	74755
#	92437
#	104015
#	116157
#	132547
#	184382
#	198380
#	209010
#	231627
#	243035
#	263437
#	277712
#	293845
#	306832
#	328435
#	329917
#	341757
#
# Disc length: 4580 seconds
#
# Revision: 1465737566
# Processed by: cddbd v1.5.2PL0 Copyright (c) Steve Scherf et al.
# Submitted via: EZCDAudioConverter 8.5.0.1
#
DISCID=6811e216
DTITLE=Townes Van Zandt - Documentary
DYEAR=1997
DGENRE=Country
TTITLE0=Introduction Larry Monroe
TTITLE1=Early Years/Influences
TTITLE2=Waiting Round To Die
TTITLE3=Tecumseh Valley Story
TTITLE4=Tecumseh Valley
TTITLE5=If I Needed You Story
TTITLE6=If I Needed You
TTITLE7=Pancho and Lefty Story
TTITLE8=Pancho and Lefty
TTITLE9=Blaze Story
TTITLE10=Blaze's Blues
TTITLE11=Marie Story
TTITLE12=Marie
TTITLE13=The Hole Story
TTITLE14=The Hole
TTITLE15=Cowboy Junkies Story
TTITLE16=Cowboy Junkies Lament
TTITLE17=Lightnin' Hopkins
TTITLE18=Brand New Companion
TTITLE19=Comments Larry Monroe
TTITLE20=I'Ll Be Here In The Morning
TTITLE21=Closing Larry Monroe
EXTD=
EXTT0=
EXTT1=
EXTT2=
EXTT3=
EXTT4=
EXTT5=
EXTT6=
EXTT7=
EXTT8=
EXTT9=
EXTT10=
EXTT11=
EXTT12=
EXTT13=
EXTT14=
EXTT15=
EXTT16=
EXTT17=
EXTT18=
EXTT19=
EXTT20=
EXTT21=
PLAYORDER=
